<?xml version="1.0" encoding="iso-8859-1"?>
<!-- Uploaded to: SVG Repo, www.svgrepo.com, Generator: SVG Repo Mixer Tools -->
<svg height="800px" width="800px" version="1.1" id="Layer_1" xmlns="http://www.w3.org/2000/svg" xmlns:xlink="http://www.w3.org/1999/xlink" 
	 viewBox="0 0 512 512" xml:space="preserve">
<g>
	<path style="fill:#A7E2DE;" d="M299.697,359.48c12.607-23.14,34.468-40.517,60.617-47.148c7.57-1.924,15.499-2.945,23.667-2.945
		c9.361,0,18.412,1.34,26.966,3.847c16.74-29.476,26.308-63.56,26.308-99.883C437.255,101.469,346.558,10.77,234.677,10.77
		c-111.882,0-202.581,90.699-202.581,202.581s90.699,202.581,202.581,202.581c18.503,0,36.422-2.494,53.453-7.146
		c-0.046-1.153-0.069-2.314-0.069-3.479C288.06,388.711,292.275,373.096,299.697,359.48L299.697,359.48z M274.327,208.725h54.013
		l-93.663,92.46l-93.668-92.46h54.014v-94.871h79.304v94.871H274.327z"/>
	<polygon style="fill:#565164;" points="234.677,301.184 328.34,208.725 274.327,208.725 274.327,113.854 195.024,113.854 
		195.024,208.725 141.009,208.725 	"/>
	<path style="fill:#85BF4F;" d="M360.313,312.332c-26.148,6.631-48.009,24.007-60.619,47.148
		c-7.419,13.617-11.635,29.231-11.635,45.827l0.061,3.479c1.833,51.366,44.048,92.443,95.86,92.443
		c52.977,0,95.923-42.946,95.923-95.922c0-43.614-29.106-80.428-68.954-92.079c-8.556-2.501-17.607-3.841-26.968-3.841
		C375.812,309.387,367.885,310.408,360.313,312.332z"/>
</g>
<g>
	<path style="fill:#000003;" d="M129.202,92.645c-4.207-4.206-11.025-4.205-15.232,0.001c-24.301,24.304-40.547,54.995-46.98,88.753
		c-1.113,5.844,2.72,11.482,8.563,12.596c0.682,0.129,1.359,0.193,2.028,0.193c5.068,0,9.584-3.595,10.569-8.757
		c5.621-29.5,19.816-56.317,41.052-77.555C133.409,103.671,133.408,96.851,129.202,92.645z"/>
	<path style="fill:#000003;" d="M426.222,307.341c14.286-29.108,21.802-61.343,21.802-93.99C448.025,95.709,352.317,0,234.677,0
		C117.033,0,21.326,95.709,21.326,213.351s95.708,213.351,213.351,213.351c14.808,0,29.536-1.548,43.945-4.569
		C286.714,472.998,330.878,512,383.984,512c58.829,0,106.691-47.862,106.691-106.692
		C490.673,361.474,464.101,323.737,426.222,307.341z M42.866,213.351c0-105.765,86.046-191.811,191.811-191.811
		c105.762,0,191.808,86.047,191.808,191.811c0,30.456-7.256,60.511-21.051,87.43c-0.445-0.09-0.892-0.17-1.337-0.255
		c-0.432-0.083-0.863-0.17-1.297-0.248c-0.096-0.017-0.193-0.03-0.289-0.048c-6.02-1.058-12.211-1.613-18.529-1.613
		c-0.485,0-0.966,0.012-1.449,0.018c9.494-16.493,16.252-34.579,19.825-53.331c1.114-5.844-2.719-11.482-8.563-12.596
		c-5.842-1.113-11.481,2.719-12.596,8.563c-4.253,22.318-13.66,43.556-27.253,61.655c-0.053,0.016-0.104,0.031-0.156,0.047
		c-0.328,0.097-0.655,0.193-0.98,0.292c-0.494,0.151-0.985,0.307-1.477,0.466c-0.328,0.106-0.656,0.21-0.982,0.32
		c-0.486,0.16-0.969,0.328-1.453,0.496c-0.327,0.114-0.654,0.228-0.977,0.345c-0.481,0.173-0.96,0.351-1.437,0.531
		c-0.323,0.122-0.645,0.243-0.966,0.368c-0.475,0.184-0.948,0.373-1.419,0.562c-0.319,0.129-0.638,0.26-0.955,0.391
		c-0.47,0.196-0.938,0.394-1.404,0.597c-0.314,0.136-0.629,0.274-0.941,0.413c-0.464,0.206-0.925,0.416-1.385,0.628
		c-0.312,0.144-0.624,0.29-0.934,0.436c-0.458,0.216-0.913,0.436-1.368,0.659c-0.307,0.151-0.613,0.303-0.918,0.457
		c-0.452,0.227-0.903,0.458-1.351,0.69c-0.303,0.158-0.604,0.319-0.905,0.478c-0.448,0.239-0.893,0.479-1.337,0.724
		c-0.295,0.163-0.589,0.33-0.882,0.494c-0.444,0.25-0.885,0.502-1.325,0.758c-0.289,0.168-0.575,0.339-0.863,0.512
		c-0.439,0.261-0.877,0.523-1.312,0.792c-0.283,0.173-0.562,0.35-0.844,0.527c-0.433,0.272-0.867,0.547-1.297,0.826
		c-0.275,0.178-0.546,0.359-0.82,0.54c-0.431,0.285-0.863,0.571-1.289,0.864c-0.263,0.18-0.525,0.364-0.786,0.546
		c-0.431,0.299-0.861,0.6-1.286,0.906c-0.253,0.181-0.503,0.366-0.754,0.55c-0.428,0.313-0.856,0.627-1.282,0.947
		c-0.242,0.183-0.481,0.369-0.722,0.555c-0.428,0.328-0.855,0.656-1.277,0.991c-0.228,0.181-0.453,0.366-0.681,0.549
		c-0.429,0.345-0.856,0.69-1.279,1.041c-0.213,0.177-0.422,0.358-0.634,0.536c-0.431,0.364-0.863,0.728-1.288,1.099
		c-0.193,0.167-0.381,0.338-0.572,0.507c-0.438,0.388-0.878,0.778-1.312,1.172c-0.165,0.152-0.328,0.307-0.492,0.46
		c-0.452,0.419-0.905,0.837-1.351,1.263c-0.124,0.12-0.247,0.242-0.37,0.362c-0.48,0.465-0.961,0.931-1.432,1.404
		c-0.046,0.047-0.093,0.096-0.139,0.143c-2.834,2.853-5.508,5.865-8.009,9.023c-0.042,0.054-0.086,0.107-0.128,0.159
		c-0.408,0.517-0.808,1.04-1.205,1.565c-0.112,0.146-0.226,0.292-0.337,0.438c-0.358,0.475-0.707,0.957-1.055,1.439
		c-0.148,0.202-0.296,0.402-0.442,0.604c-0.328,0.459-0.648,0.923-0.969,1.387c-0.157,0.229-0.32,0.457-0.476,0.688
		c-0.305,0.448-0.603,0.901-0.9,1.355c-0.167,0.253-0.336,0.505-0.501,0.759c-0.285,0.44-0.562,0.887-0.842,1.333
		c-0.168,0.27-0.34,0.541-0.508,0.813c-0.253,0.416-0.502,0.834-0.751,1.254c-18.255,7.647-37.584,11.527-57.513,11.527
		c-5.948,0-10.77,4.822-10.77,10.77c0,5.947,4.822,10.77,10.77,10.77c15.802,0,31.275-2.144,46.242-6.365
		c-0.022,0.085-0.043,0.171-0.066,0.257c-0.115,0.433-0.229,0.868-0.338,1.304c-0.103,0.406-0.202,0.814-0.298,1.222
		c-0.104,0.434-0.207,0.869-0.305,1.305c-0.095,0.417-0.185,0.835-0.275,1.254c-0.092,0.431-0.183,0.864-0.27,1.297
		c-0.085,0.429-0.166,0.857-0.247,1.287c-0.081,0.428-0.16,0.856-0.236,1.285c-0.076,0.438-0.149,0.879-0.219,1.319
		c-0.069,0.427-0.139,0.851-0.202,1.277c-0.068,0.45-0.128,0.901-0.19,1.354c-0.058,0.42-0.115,0.84-0.168,1.262
		c-0.057,0.462-0.108,0.925-0.159,1.389c-0.045,0.416-0.093,0.83-0.134,1.248c-0.047,0.473-0.087,0.949-0.127,1.424
		c-0.034,0.411-0.071,0.822-0.102,1.234c-0.036,0.486-0.064,0.973-0.094,1.461c-0.023,0.405-0.051,0.809-0.069,1.216
		c-0.005,0.096-0.013,0.191-0.017,0.286c-13.972,3.18-28.307,4.79-42.727,4.79C128.911,405.162,42.866,319.116,42.866,213.351z
		 M383.984,490.46c-46.954,0-85.153-38.2-85.153-85.152c0-1.71,0.066-3.403,0.166-5.089c0.113-1.919,0.303-3.818,0.542-5.701
		c5.321-41.874,41.148-74.361,84.443-74.361c0.094,0,0.186,0.004,0.279,0.005c1.188,0.003,2.369,0.037,3.547,0.089
		c0.404,0.018,0.807,0.041,1.209,0.065c1.018,0.06,2.03,0.137,3.037,0.232c0.274,0.026,0.549,0.045,0.822,0.073
		c1.257,0.13,2.504,0.292,3.743,0.476c0.298,0.044,0.596,0.096,0.892,0.144c1.052,0.168,2.097,0.354,3.136,0.561
		c0.246,0.048,0.492,0.095,0.738,0.145c38.634,8.055,67.749,42.369,67.749,83.359C469.133,452.26,430.934,490.46,383.984,490.46z"/>
	<path style="fill:#000003;" d="M74.745,202.122c-5.948,0-10.77,4.822-10.77,10.77v0.46c0,5.947,4.822,10.77,10.77,10.77
		c5.948,0,10.77-4.823,10.77-10.77v-0.46C85.515,206.943,80.693,202.122,74.745,202.122z"/>
	<path style="fill:#000003;" d="M394.458,224.579c0.051,0.001,0.1,0.001,0.151,0.001c5.879,0,10.686-4.726,10.766-10.622
		l0.003-0.606c0-5.948-4.823-10.77-10.77-10.77c-5.947,0-10.77,4.822-10.77,10.77l-0.001,0.312
		C383.755,219.611,388.511,224.498,394.458,224.579z"/>
	<path style="fill:#000003;" d="M274.327,311.954c5.948,0,10.77-4.822,10.77-10.77c0-5.947-4.822-10.77-10.77-10.77h-13.41
		l74.989-74.025c3.109-3.069,4.057-7.712,2.398-11.753c-1.66-4.042-5.595-6.681-9.964-6.681h-43.243v-84.101
		c0-5.948-4.822-10.77-10.77-10.77h-79.304c-5.948,0-10.77,4.822-10.77,10.77v84.101H141.01c-4.369,0-8.305,2.639-9.963,6.681
		c-1.659,4.041-0.712,8.685,2.397,11.753l74.993,74.025h-13.412c-5.948,0-10.77,4.823-10.77,10.77c0,5.948,4.822,10.77,10.77,10.77
		H274.327z M195.024,219.495c5.947,0,10.77-4.823,10.77-10.77v-84.101h57.764v84.101c0,5.947,4.823,10.77,10.77,10.77H302.1
		l-67.423,66.557l-67.426-66.557L195.024,219.495L195.024,219.495z"/>
	<path style="fill:#000003;" d="M422.98,372.264l-53.235,53.237l-24.76-24.759c-4.206-4.206-11.025-4.206-15.231,0
		c-4.207,4.206-4.206,11.025,0,15.231l32.375,32.376c2.019,2.019,4.76,3.155,7.615,3.155c2.856,0,5.596-1.135,7.615-3.156
		l60.85-60.853c4.206-4.206,4.205-11.024,0-15.231C434.004,368.058,427.185,368.058,422.98,372.264z"/>
</g>
</svg>